<svg xmlns="http://www.w3.org/2000/svg" width="135.285" height="53.601" viewBox="0 0 135.285 53.601"><defs><style>.a{fill:#060e9f;}.b{fill:#4d4fff;}</style></defs><g transform="translate(-22.093 -15.171)"><g transform="translate(22.093 15.171)"><path class="a" d="M48.157,53.221A19.03,19.03,0,1,1,61.614,20.735l2.155,2.155L41.421,45.237a12.96,12.96,0,0,0,15.884-1.9l4.308,4.31a18.9,18.9,0,0,1-13.457,5.573m0-31.96a12.939,12.939,0,0,0-11.048,19.67L54.893,23.147a12.924,12.924,0,0,0-6.736-1.885" transform="translate(-23.715 -15.171)"/><path class="a" d="M46.566,80.5A34.385,34.385,0,0,1,22.093,70.363L26.4,66.054a28.517,28.517,0,0,0,40.329,0l4.31,4.309A34.389,34.389,0,0,1,46.566,80.5" transform="translate(-22.093 -26.9)"/><path class="a" d="M76.019,67.267a5.3,5.3,0,1,1,5.3,5.3,5.3,5.3,0,0,1-5.3-5.3" transform="translate(-34.524 -25.959)"/></g><g transform="translate(78.268 32.879)"><path class="b" d="M97.077,49.952A6.113,6.113,0,0,1,95.1,45.244a6.548,6.548,0,0,1,1.775-4.681,6.016,6.016,0,0,1,4.579-1.878,5.314,5.314,0,0,1,3.331,1.054,5.824,5.824,0,0,1,1.943,2.483,8.008,8.008,0,0,1,.566,2.971v.566H97.18a4.26,4.26,0,0,0,1.6,3.062,5.587,5.587,0,0,0,3.6,1.132,7.265,7.265,0,0,0,4.013-1.157v1.8a7.222,7.222,0,0,1-4.425,1.183,6.951,6.951,0,0,1-4.888-1.828m8.156-5.84a3.92,3.92,0,0,0-1.03-2.482,3.583,3.583,0,0,0-2.854-1.119,4.056,4.056,0,0,0-2.92,1.067,3.772,3.772,0,0,0-1.222,2.533h8.026Z" transform="translate(-95.096 -38.3)"/><path class="b" d="M114.014,38.994h2.058v1.827a4.982,4.982,0,0,1,4.4-2.134,4.787,4.787,0,0,1,2.559.643,3.276,3.276,0,0,1,1.427,1.776,5.357,5.357,0,0,1,1.928-1.737,5.768,5.768,0,0,1,2.832-.68,4.14,4.14,0,0,1,3.242,1.286,5.4,5.4,0,0,1,1.157,3.73V51.47h-2.032V44.165q0-3.55-2.985-3.55a3.759,3.759,0,0,0-2.2.759,4.892,4.892,0,0,0-1.581,1.788c0,.189,0,.429.012.72s.014.532.014.722V51.47h-2.032V44.165a5.162,5.162,0,0,0-.3-1.865,2.27,2.27,0,0,0-.785-1.093,3.291,3.291,0,0,0-.938-.462,3.464,3.464,0,0,0-.966-.13,3.789,3.789,0,0,0-2.16.72,4.846,4.846,0,0,0-1.6,1.75V51.47h-2.058V38.994Z" transform="translate(-99.457 -38.3)"/><path class="b" d="M155.1,40.126a7.618,7.618,0,0,1,0,9.62,5.529,5.529,0,0,1-4.336,1.942,5.051,5.051,0,0,1-4.218-1.9V56.5h-3.627V38.518h3.627v1.571a4.964,4.964,0,0,1,4.218-1.9,5.524,5.524,0,0,1,4.336,1.941M147.839,41.9a3.7,3.7,0,0,0-1.288,1.376v3.345a3.615,3.615,0,0,0,1.288,1.363,3.464,3.464,0,0,0,1.9.539,3.291,3.291,0,0,0,2.5-1.028,3.549,3.549,0,0,0,.978-2.546,3.59,3.59,0,0,0-.978-2.572,3.29,3.29,0,0,0-2.5-1.028,3.391,3.391,0,0,0-1.9.552" transform="translate(-106.121 -38.184)"/><path class="b" d="M175.761,48.4v2.649a3.12,3.12,0,0,1-1.957.54,2.849,2.849,0,0,1-2.906-1.647,5.891,5.891,0,0,1-4.425,1.75,4.967,4.967,0,0,1-3.409-1.17,3.969,3.969,0,0,1-1.324-3.126,3.634,3.634,0,0,1,1.492-3.139,5.932,5.932,0,0,1,3.575-1.08,7.982,7.982,0,0,1,3.7.8v-.386q0-2.417-3.4-2.417a7.519,7.519,0,0,0-3.884,1.08V39.213a10.111,10.111,0,0,1,4.758-1.029,6.93,6.93,0,0,1,4.44,1.339,4.469,4.469,0,0,1,1.684,3.7v4.348q0,.978.9.976a1.565,1.565,0,0,0,.747-.155m-5.248-2.109a4.68,4.68,0,0,0-2.677-.746,3.358,3.358,0,0,0-1.837.436,1.5,1.5,0,0,0-.041,2.5,3.014,3.014,0,0,0,1.647.411,3.438,3.438,0,0,0,2.906-1.311V46.287Z" transform="translate(-110.459 -38.184)"/><path class="b" d="M179.973,56.239V53.075a3.874,3.874,0,0,0,1.955.515,2.286,2.286,0,0,0,1.632-.617,5.736,5.736,0,0,0,1.222-1.955l-5.529-12.4h3.909l3.395,8.437,3.218-8.437h3.831l-5.941,14.174q-1.7,3.962-5.119,3.961a5.539,5.539,0,0,1-2.573-.514" transform="translate(-114.496 -38.284)"/></g></g></svg>